<?xml version="1.0" standalone="no"?>
<!DOCTYPE svg PUBLIC "-//W3C//DTD SVG 1.1//EN" "http://www.w3.org/Graphics/SVG/1.1/DTD/svg11.dtd" >
<svg xmlns="http://www.w3.org/2000/svg" xmlns:xlink="http://www.w3.org/1999/xlink" version="1.1">
<metadata>
Created by FontForge 20170924 at Mon Jun  9 10:22:25 2014
 By www-data
Copyright (c) 2014 by Nome. All rights reserved.
</metadata>
<defs>
<font id="RabiolaSerif" horiz-adv-x="833" >
  <font-face 
    font-family="Rabiola Serif"
    font-weight="400"
    font-stretch="normal"
    units-per-em="1000"
    panose-1="0 0 0 0 0 0 0 0 0 0"
    ascent="750"
    descent="-250"
    x-height="500"
    cap-height="700"
    bbox="-164 -264 1110 938"
    underline-thickness="50"
    underline-position="-100"
    stemh="51"
    stemv="116"
    unicode-range="U+000D-2212"
  />
<missing-glyph horiz-adv-x="354" 
 />
    <glyph glyph-name=".notdef" horiz-adv-x="354" 
 />
    <glyph glyph-name="NULL" horiz-adv-x="0" 
 />
    <glyph glyph-name="NULL" horiz-adv-x="0" 
 />
    <glyph glyph-name="CR" unicode="&#xd;" horiz-adv-x="354" 
 />
    <glyph glyph-name="space" unicode=" " horiz-adv-x="303" 
 />
    <glyph glyph-name="exclam" unicode="!" horiz-adv-x="340" 
d="M170 113c37 0 65 -24 65 -63c0 -37 -27 -61 -65 -61c-36 0 -64 21 -64 61c0 37 23 63 64 63zM170 163l-30 1l-28 480v56h117v-56l-29 -480z" />
    <glyph glyph-name="numbersign" unicode="#" horiz-adv-x="532" 
d="M254 0l43 179h-88l-43 -179h-73l43 179h-105l24 63h96l34 143h-116l24 64h108l42 174h73l-42 -174l88 -1l42 175h73l-42 -175h110l-24 -63h-102l-34 -144h123l-24 -62h-114l-43 -179h-73zM258 385l-34 -143l88 -1l34 144h-88z" />
    <glyph glyph-name="dollar" unicode="$" horiz-adv-x="507" 
d="M211 -91v80c-32 0 -123 2 -207 53l14 156h36c32 -98 80 -159 157 -159v254c-93 48 -201 98 -201 218c0 128 100 186 201 199v83h48v-80c113 -1 160 -25 213 -53l-14 -156h-36c-34 87 -59 158 -163 159v-238c104 -58 233 -122 233 -229c0 -159 -135 -197 -233 -205v-82
h-48zM339 166c0 44 -34 74 -80 101v-222c49 14 80 52 80 121zM128 549c0 -36 35 -66 83 -96v202c-43 -14 -83 -48 -83 -106z" />
    <glyph glyph-name="percent" unicode="%" 
d="M54 0l295 445h75l-295 -445h-75zM112 446c69 0 103 -48 103 -101c0 -50 -32 -101 -103 -101s-99 48 -99 101c0 50 27 101 99 101zM76 344c0 -46 11 -71 36 -71c29 0 36 32 36 71c0 33 -10 74 -36 74c-27 0 -36 -36 -36 -74zM367 203c68 0 103 -48 103 -102
c0 -50 -31 -101 -103 -101c-71 0 -100 48 -100 101c0 51 28 102 100 102zM331 99c0 -45 11 -71 36 -71c28 0 36 33 36 71c0 35 -10 74 -36 74c-27 0 -36 -36 -36 -74z" />
    <glyph glyph-name="ampersand" unicode="&#x26;" horiz-adv-x="690" 
d="M596 357v-25c0 -1 -53 -21 -75 -30c-4 -63 -14 -116 -29 -159l76 -89c36 -14 74 -29 74 -29v-25h-170l-38 44c-38 -38 -87 -55 -148 -55h-5c-117 0 -247 41 -247 174c0 115 71 149 144 179c-49 53 -80 87 -80 159c0 109 105 155 181 155c89 0 160 -54 160 -137
c0 -85 -58 -106 -128 -152l-8 -5l145 -168c9 31 15 68 18 111c-9 4 -63 26 -63 27v25h193zM293 51c38 2 71 16 99 42l-179 210c-34 -19 -68 -65 -68 -132c0 -77 66 -120 140 -120h8zM272 397c40 29 72 68 75 112c0 61 -22 98 -70 98c-51 0 -80 -39 -80 -82
c0 -46 16 -63 75 -128z" />
    <glyph glyph-name="quotesingle" unicode="'" horiz-adv-x="168" 
d="M70 417c-33 119 -39 140 -39 168c0 49 14 70 57 70s56 -21 56 -70c0 -28 -6 -49 -39 -168h-35z" />
    <glyph glyph-name="parenleft" unicode="(" horiz-adv-x="484" 
d="M214 249h-116v12c0 123 46 310 217 462h60c-160 -203 -161 -391 -161 -470v-4zM98 249h116v-4c0 -79 1 -267 161 -470h-60c-171 152 -217 339 -217 462v12z" />
    <glyph glyph-name="parenright" unicode=")" horiz-adv-x="374" 
d="M209 253c0 79 -1 267 -161 470h60c171 -152 217 -339 217 -462v-24c0 -123 -46 -310 -217 -462h-60c160 203 161 391 161 470v8z" />
    <glyph glyph-name="asterisk" unicode="*" horiz-adv-x="378" 
d="M271 514l-84 59l10 -102v-23h-50v23l10 103l-84 -60l-19 -12l-25 43l20 13l93 41l-92 43l-21 11l26 43l19 -11l83 -60l-10 101v23h50v-23l-9 -100l82 59l19 11l26 -43l-21 -11l-92 -43l93 -41l20 -13l-25 -43z" />
    <glyph glyph-name="plus" unicode="+" 
d="M101 227v73h160v159h77v-159h161v-73h-161v-166h-77v166h-160z" />
    <glyph glyph-name="comma" unicode="," horiz-adv-x="186" 
d="M79 103c37 0 65 -24 65 -63c0 -16 -5 -32 -14 -45l-77 -95l-21 17c11 16 25 33 25 54c0 4 0 8 -1 12c-8 25 -35 28 -35 59c0 37 27 61 58 61z" />
    <glyph glyph-name="hyphen" unicode="-" horiz-adv-x="333" 
d="M41 223v78h298v-78h-298z" />
    <glyph glyph-name="period" unicode="." horiz-adv-x="164" 
d="M79 113c37 0 65 -24 65 -63c0 -37 -27 -61 -65 -61c-36 0 -64 21 -64 61c0 37 23 63 64 63z" />
    <glyph glyph-name="slash" unicode="/" horiz-adv-x="444" 
d="M139 0l310 652h57l-310 -652h-57z" />
    <glyph glyph-name="zero" unicode="0" horiz-adv-x="583" 
d="M289 655c157 0 246 -157 246 -334c0 -161 -81 -332 -246 -332s-241 158 -241 332c0 165 72 334 241 334zM184 318c0 -176 35 -282 107 -282c79 0 107 128 107 282c0 132 -34 290 -107 290c-78 0 -107 -144 -107 -290z" />
    <glyph glyph-name="one" unicode="1" horiz-adv-x="424" 
d="M292 55c0 0 92 -29 92 -30v-25h-208v527l-132 -24v24l248 133v-605zM176 55v-55h-93v25c0 1 93 30 93 30z" />
    <glyph glyph-name="two" unicode="2" horiz-adv-x="527" 
d="M465 0h-443v56c40 62 303 316 303 438c0 78 -36 111 -92 111c-77 0 -106 -72 -134 -159h-36l-14 156c67 39 105 53 208 53c146 0 208 -75 208 -185c0 -120 -171 -224 -307 -378h234c17 48 36 104 37 104h36v-196z" />
    <glyph glyph-name="three" unicode="3" horiz-adv-x="538" 
d="M182 311v51h27h4c91 1 114 44 115 115v8c0 75 -27 119 -83 119c-62 0 -99 -71 -122 -137h-35l-14 136c66 38 134 53 192 53c69 0 214 -27 214 -179c-2 -60 -34 -109 -102 -138c75 -26 112 -76 112 -152v-10c-1 -165 -171 -188 -257 -188c-52 0 -135 17 -191 53l14 139h36
c19 -58 65 -139 132 -139c66 0 111 63 111 128v17c0 58 -9 121 -127 124h-26z" />
    <glyph glyph-name="four" unicode="4" horiz-adv-x="578" 
d="M211 0v25c0 1 93 30 93 30v117h-256v93l309 389h63v-389h118v-93h-118v-117s92 -29 92 -30v-25h-301zM130 265h174v217z" />
    <glyph glyph-name="five" unicode="5" horiz-adv-x="535" 
d="M439 654v-106h-285v-140c14 1 18 2 31 2c201 0 301 -71 301 -214v-9c0 -172 -171 -198 -257 -198c-81 0 -112 8 -191 55l17 115h33c40 -87 63 -118 130 -118c66 0 113 63 113 138v17c0 80 -9 152 -136 152c-47 0 -73 -7 -120 -10v316h364z" />
    <glyph glyph-name="six" unicode="6" horiz-adv-x="562" 
d="M464 655v-44c-80 0 -191 -34 -241 -140c-11 -22 -20 -48 -27 -76c29 8 67 15 96 15c154 0 226 -75 226 -209v-10c-1 -160 -148 -202 -227 -202c-10 0 -18 0 -26 1v-1c-186 0 -217 164 -217 283c0 104 35 226 141 310c85 68 219 73 264 73h11zM382 201
c0 76 -1 154 -110 154c-36 0 -65 -9 -88 -17c-3 -25 -5 -50 -5 -74c0 -103 20 -220 95 -226h1h5c62 0 102 77 102 147v16z" />
    <glyph glyph-name="seven" unicode="7" horiz-adv-x="497" 
d="M44 655h425v-47l-219 -608h-148l279 553h-257l-30 -93h-50v195z" />
    <glyph glyph-name="eight" unicode="8" horiz-adv-x="492" 
d="M251 656c89 0 172 -39 172 -152c0 -69 -49 -107 -107 -137c73 -46 143 -119 143 -200c0 -154 -136 -175 -216 -178h-6c-77 0 -203 26 -203 169c0 65 52 125 112 163c-55 40 -76 101 -76 160c0 119 105 175 181 175zM337 148c0 61 -76 99 -145 143
c-37 -34 -63 -76 -63 -143c0 -77 54 -112 112 -112c55 0 96 35 96 112zM269 397c37 28 65 68 68 112c0 61 -38 98 -90 98c-51 0 -78 -39 -78 -82c0 -61 43 -92 100 -128z" />
    <glyph glyph-name="nine" unicode="9" horiz-adv-x="557" 
d="M91 -11v43c81 0 193 34 243 141c10 22 19 48 26 76c-29 -8 -67 -15 -96 -15c-154 0 -226 83 -226 197v11c0 141 127 214 228 214h25c187 0 218 -164 218 -283c0 -105 -35 -226 -142 -312c-84 -67 -219 -72 -264 -72h-12zM174 438c0 -75 1 -149 111 -149c36 0 65 9 87 17
c4 24 6 50 6 75c0 101 -22 219 -96 226h-6c-62 0 -102 -90 -102 -161v-8z" />
    <glyph glyph-name="colon" unicode=":" horiz-adv-x="167" 
d="M79 106c36 0 62 -23 62 -60c0 -35 -26 -58 -62 -58c-35 0 -61 20 -61 58c0 36 22 60 61 60zM79 465c36 0 62 -23 62 -60c0 -35 -26 -58 -62 -58c-35 0 -61 20 -61 58c0 36 22 60 61 60z" />
    <glyph glyph-name="semicolon" unicode=";" 
d="M82 465c36 0 62 -23 62 -60c0 -35 -26 -58 -62 -58c-35 0 -61 20 -61 58c0 36 22 60 61 60zM79 103c37 0 65 -24 65 -63c0 -16 -5 -32 -14 -45l-77 -95l-21 17c11 16 25 33 25 54c0 4 0 8 -1 12c-8 25 -35 28 -35 59c0 37 27 61 58 61z" />
    <glyph glyph-name="less" unicode="&#x3c;" horiz-adv-x="508" 
d="M200 252h-138l253 223l44 -23zM62 252h138l159 -200l-44 -23z" />
    <glyph glyph-name="equal" unicode="=" horiz-adv-x="556" 
d="M101 311l-3 76s367 3 398 3c0 0 -2 -65 -2 -76c-49 -1 -393 -3 -393 -3zM101 129l-3 77s367 3 398 3c0 0 -2 -67 -2 -77c-49 -1 -393 -3 -393 -3z" />
    <glyph glyph-name="greater" unicode="&#x3e;" horiz-adv-x="520" 
d="M271 252l-159 200l44 23l253 -223l-253 -223l-44 23z" />
    <glyph glyph-name="question" unicode="?" horiz-adv-x="480" 
d="M192 163l-33 1l-5 74c-6 87 180 149 180 290c0 90 -39 134 -104 134c-95 0 -120 -70 -154 -158h-36l-14 156c53 29 121 53 216 53c123 0 230 -46 230 -203c0 -156 -231 -217 -246 -309l-4 -37zM189 113c37 0 65 -24 65 -63c0 -37 -27 -61 -65 -61c-36 0 -64 21 -64 61
c0 37 23 63 64 63z" />
    <glyph glyph-name="at" unicode="@" horiz-adv-x="1027" 
d="M614 55c-22 -39 -82 -66 -150 -66c-92 0 -174 23 -174 155c0 115 81 145 193 148c35 1 73 -3 111 -7v76c0 60 -33 91 -100 91c-46 0 -83 -9 -121 -86h-28l-15 96c57 35 99 47 196 47c96 0 183 -47 183 -172v-215c0 -59 11 -65 28 -65c45 0 160 25 160 273
c0 202 -159 333 -348 333c-243 0 -423 -175 -423 -429c0 -247 212 -394 414 -394c147 0 252 52 318 149h88c-66 -166 -251 -231 -438 -231c-239 0 -469 193 -469 468c0 341 230 521 512 521c228 0 433 -164 433 -401c-1 -252 -122 -358 -275 -358c-45 0 -79 16 -95 67z
M594 248c-161 0 -180 -25 -180 -100c0 -50 11 -103 82 -103c41 0 98 22 98 69v134z" />
    <glyph glyph-name="A" unicode="A" horiz-adv-x="745" 
d="M349 718l57 -18l254 -647c17 -6 73 -27 73 -28v-25h-280v25c0 1 61 28 64 30l-73 187h-210l-72 -190c6 -3 65 -26 65 -27v-25h-204v25c0 1 55 22 72 28zM337 516l-84 -223h171z" />
    <glyph glyph-name="B" unicode="B" horiz-adv-x="717" 
d="M138 55v590s-78 29 -78 30v25h78h215c217 0 274 -70 274 -178c0 -61 -24 -116 -88 -150c88 -24 138 -76 138 -176c0 -124 -80 -196 -291 -196h-326v25c0 1 78 30 78 30zM366 338h-98v-287h118c97 0 146 70 146 145c0 80 -39 142 -156 142h-10zM268 649v-260h98
c88 0 126 54 126 129c0 70 -32 131 -139 131h-85z" />
    <glyph glyph-name="C" unicode="C" horiz-adv-x="639" 
d="M398 39c62 0 119 34 160 159h36l14 -156c-57 -34 -123 -53 -209 -53h-22c-218 0 -342 173 -342 362c0 188 126 362 342 362h22c87 0 153 -19 210 -53l-14 -156h-36c-41 124 -98 158 -159 159h-23c-135 0 -188 -159 -188 -316c0 -196 64 -308 189 -308h20z" />
    <glyph glyph-name="D" unicode="D" horiz-adv-x="761" 
d="M138 55v590s-78 29 -78 30v25h78h218c237 0 369 -146 369 -341v-17c0 -174 -113 -342 -369 -342h-296v25c0 1 78 30 78 30zM356 53c147 0 223 115 223 289v7c0 154 -76 298 -223 298h-88v-594h88z" />
    <glyph glyph-name="E" unicode="E" horiz-adv-x="650" 
d="M138 55v590s-78 29 -78 30v25h78h472v-176h-36c-2 0 -25 69 -42 121h-264v-270h190s29 78 30 78h25v-207h-25c-1 0 -30 78 -30 78h-190v-269h274c17 51 40 121 42 121h36v-176h-560v25c0 1 78 30 78 30z" />
    <glyph glyph-name="F" unicode="F" horiz-adv-x="640" 
d="M138 55v590s-78 29 -78 30v25h78h472v-176h-36c-2 0 -25 69 -42 121h-264v-270h190s29 78 30 78h25v-207h-25c-1 0 -30 78 -30 78h-190v-269s78 -29 78 -30v-25h-286v25c0 1 78 30 78 30z" />
    <glyph glyph-name="G" unicode="G" horiz-adv-x="703" 
d="M378 39c42 0 74 5 100 13v217s-78 29 -78 30v25h208h65v-25c0 -1 -65 -30 -65 -30v-227c-44 -28 -107 -53 -231 -53c-218 0 -342 173 -342 362c0 188 126 362 342 362h12c87 0 163 -19 220 -53l-14 -156h-36c-41 125 -108 159 -170 159h-12c-135 0 -188 -159 -188 -316
c0 -196 64 -308 189 -308z" />
    <glyph glyph-name="H" unicode="H" horiz-adv-x="825" 
d="M138 55v590s-78 29 -78 30v25h273v-25c0 -1 -65 -30 -65 -30v-264h289v264s-65 29 -65 30v25h273v-25c0 -1 -78 -30 -78 -30v-590s78 -29 78 -30v-25h-273v25c0 1 65 30 65 30v266h-289v-266s65 -29 65 -30v-25h-273v25c0 1 78 30 78 30z" />
    <glyph glyph-name="I" unicode="I" horiz-adv-x="376" 
d="M60 0v25c0 1 63 30 63 30v590s-63 29 -63 30v25h256v-25c0 -1 -63 -30 -63 -30v-590s63 -29 63 -30v-25h-256z" />
    <glyph glyph-name="J" unicode="J" horiz-adv-x="525" 
d="M402 645v-465c0 -146 -125 -191 -204 -191c-76 0 -124 7 -201 53l14 156h36c23 -73 59 -158 126 -158c74 0 97 74 99 140v6v459s-63 29 -63 30v25h63h193v-25c0 -1 -63 -30 -63 -30z" />
    <glyph glyph-name="K" unicode="K" horiz-adv-x="786" 
d="M319 25v-25h-273v25c0 1 78 30 78 30v590s-78 29 -78 30v25h78h130h65v-25c0 -1 -65 -30 -65 -30v-310l293 320c-29 9 -62 19 -62 20v25h230v-25c0 -1 -58 -17 -93 -27l-206 -225l246 -367c36 -13 80 -31 80 -31v-25h-203l-217 321l-68 -74v-192s65 -29 65 -30z" />
    <glyph glyph-name="L" unicode="L" horiz-adv-x="628" 
d="M138 645c0 0 -78 29 -78 30v25h286v-25c0 -1 -78 -30 -78 -30v-590h264c17 51 40 121 42 121h36v-176h-550v25c0 1 78 30 78 30v590z" />
    <glyph glyph-name="M" unicode="M" horiz-adv-x="955" 
d="M184 531v-476s65 -29 65 -30v-25h-205v25c0 1 78 30 78 30l-2 630v-40s-78 29 -78 30v25h206l223 -534l216 534h130h78v-25c0 -1 -78 -30 -78 -30v-590s78 -29 78 -30v-25h-273v25c0 1 65 30 65 30v483l-220 -538h-63z" />
    <glyph glyph-name="N" unicode="N" horiz-adv-x="789" 
d="M663 0h-62l-412 562v-507s65 -29 65 -30v-25h-205v25c0 1 78 30 78 30l-2 594v-4s-78 29 -78 30v25h205l348 -476l-1 476h142v-25c0 -1 -78 -30 -78 -30v-645zM599 700v-55s-65 29 -65 30v25h65z" />
    <glyph glyph-name="O" unicode="O" horiz-adv-x="784" 
d="M389 713c219 0 360 -172 360 -362c0 -177 -130 -362 -360 -362c-231 0 -354 172 -354 362c0 178 118 362 354 362zM190 347c0 -191 55 -308 200 -308c154 0 198 141 198 308c0 143 -55 316 -199 316c-155 0 -199 -159 -199 -316z" />
    <glyph glyph-name="P" unicode="P" horiz-adv-x="673" 
d="M138 55v590s-78 29 -78 30v25h78h202c197 0 297 -55 297 -198c0 -142 -104 -193 -290 -194h-79v-253s78 -29 78 -30v-25h-286v25c0 1 78 30 78 30zM343 646h-75v-287h72c97 0 162 46 162 143c0 95 -35 143 -159 144z" />
    <glyph glyph-name="Q" unicode="Q" horiz-adv-x="784" 
d="M389 713c219 0 360 -172 360 -362c0 -124 -64 -252 -181 -318c31 -56 90 -96 145 -96h4c42 2 62 4 103 52l23 -13l-36 -80c-20 -12 -72 -28 -120 -30h-5c-106 0 -200 48 -245 126c-15 -2 -32 -3 -48 -3c-231 0 -354 172 -354 362c0 178 118 362 354 362zM190 347
c0 -191 55 -308 200 -308c154 0 198 141 198 308c0 143 -55 316 -199 316c-155 0 -199 -159 -199 -316z" />
    <glyph glyph-name="R" unicode="R" horiz-adv-x="745" 
d="M138 55v590s-78 29 -78 30v25h78h202c212 0 295 -51 295 -185c0 -90 -55 -147 -165 -168l166 -294c35 -13 72 -28 72 -28v-25h-191l-181 338h-68v-283s65 -29 65 -30v-25h-273v25c0 1 78 30 78 30zM268 647v-258h72c117 0 160 50 160 130c0 69 -33 127 -157 128h-75z" />
    <glyph glyph-name="S" unicode="S" horiz-adv-x="584" 
d="M172 554c0 -113 374 -145 374 -342c0 -185 -193 -223 -288 -223c-29 0 -123 0 -210 53l14 156h36c32 -98 81 -159 158 -159c75 0 159 54 159 143c0 119 -361 137 -361 326c0 147 133 205 246 205c105 0 163 -24 216 -53l-14 -151h-36c-34 88 -69 154 -164 154
c-65 0 -130 -37 -130 -109z" />
    <glyph glyph-name="T" unicode="T" horiz-adv-x="656" 
d="M258 55v589h-158c-14 -52 -33 -120 -34 -120h-36l-11 176h618l-11 -176h-36c-1 0 -21 68 -35 120h-167v-589s78 -29 78 -30v-25h-286v25c0 1 78 30 78 30z" />
    <glyph glyph-name="U" unicode="U" horiz-adv-x="716" 
d="M93 700h130v-419c0 -140 50 -232 168 -232h13c78 0 168 37 168 231v365s-65 29 -65 30v25h65h143v-25c0 -1 -78 -30 -78 -30v-372c0 -210 -107 -284 -242 -284h-15c-183 0 -287 71 -287 262v394s-78 29 -78 30v25h78zM223 645v55h65v-25c0 -1 -65 -30 -65 -30z" />
    <glyph glyph-name="V" unicode="V" horiz-adv-x="753" 
d="M411 0h-66l-254 645c-10 4 -73 29 -73 30v25h271v-25c0 -1 -54 -26 -63 -30l184 -470l178 473c-6 2 -64 26 -64 27v25h205v-25c0 -1 -65 -26 -75 -30z" />
    <glyph glyph-name="W" unicode="W" horiz-adv-x="1137" 
d="M791 0h-66l-161 407l-153 -407h-66l-254 645c-10 4 -75 29 -75 30v25h273v-25c0 -1 -54 -26 -63 -30l184 -469l120 318l-59 151c-10 4 -73 29 -73 30v25h271v-25c0 -1 -54 -26 -63 -30l185 -470l177 473c-6 2 -64 26 -64 27v25h206v-25c0 -1 -66 -26 -76 -30z" />
    <glyph glyph-name="X" unicode="X" horiz-adv-x="758" 
d="M453 0v25c0 1 40 19 57 26l-156 232l-175 -229c10 -5 63 -28 63 -29v-25h-223v25c0 1 78 30 78 30v-1l219 286l-205 305s-78 29 -78 30v25h301v-25c0 -1 -38 -18 -56 -26l138 -206l161 206c-18 8 -55 25 -55 26v25h211v-25c0 -1 -78 -30 -78 -30l-200 -259l223 -331
s78 -29 78 -30v-25h-303z" />
    <glyph glyph-name="Y" unicode="Y" horiz-adv-x="724" 
d="M297 55v215l-205 375c-9 4 -77 29 -77 30v25h282v-25c0 -1 -53 -25 -63 -29l164 -301l162 300c-9 4 -63 29 -63 30v25h212v-25c0 -1 -78 -30 -78 -30l-204 -375v-215s63 -29 63 -30v-25h-256v25c0 1 63 30 63 30z" />
    <glyph glyph-name="Z" unicode="Z" horiz-adv-x="580" 
d="M550 700v-54l-389 -592h311c17 52 41 122 43 122h36v-176h-543v54l390 592h-288c-15 -52 -34 -122 -35 -122h-36l-10 176h521z" />
    <glyph glyph-name="bracketleft" unicode="[" horiz-adv-x="283" 
d="M228 -230l-171 -1v958h171v-47h-78v-864h78v-46z" />
    <glyph glyph-name="backslash" unicode="\" horiz-adv-x="436" 
d="M156 722l230 -722h-78l-230 722h78z" />
    <glyph glyph-name="bracketright" unicode="]" horiz-adv-x="351" 
d="M228 -231l-171 1v46h78v864h-78v47h171v-958z" />
    <glyph glyph-name="asciicircum" unicode="^" horiz-adv-x="800" 
d="M203 325l205 175l189 -175l-20 -30l-176 94l-184 -94z" />
    <glyph glyph-name="underscore" unicode="_" 
d="M45 -202v58h558v-58h-558z" />
    <glyph glyph-name="grave" unicode="`" 
d="M280 519l175 -196l-32 -30l-192 117l-31 32z" />
    <glyph glyph-name="a" unicode="a" horiz-adv-x="583" 
d="M115 368l-14 97c56 34 100 47 196 47c98 0 186 -48 186 -174v-282s63 -9 63 -10v-25l-140 -21l-19 54c-23 -39 -82 -65 -152 -65c-93 0 -175 22 -175 154c0 117 82 148 194 150c35 0 74 -2 113 -6v75c0 61 -35 92 -102 92c-45 0 -84 -10 -121 -87zM367 248
c-162 0 -181 -24 -181 -100c0 -51 10 -104 82 -104c42 0 99 22 99 70v134z" />
    <glyph glyph-name="b" unicode="b" horiz-adv-x="629" 
d="M100 0v686l-60 20v24l176 20v-289c46 26 104 51 155 51c132 0 198 -134 198 -268c0 -162 -111 -255 -243 -255c-56 0 -98 25 -131 58l-60 -47h-35zM326 435c-34 0 -79 -6 -110 -15v-322c0 -6 56 -48 108 -48c41 0 112 22 112 207c0 164 -66 178 -110 178z" />
    <glyph glyph-name="c" unicode="c" horiz-adv-x="535" 
d="M324 -11c-170 0 -272 105 -272 262c0 155 102 261 272 261c74 -3 114 -16 163 -46l-14 -121h-32c-20 88 -46 109 -117 109c-110 0 -139 -71 -139 -203c0 -133 29 -204 139 -204c44 0 83 11 120 87l29 -1l14 -98c-49 -30 -89 -43 -163 -46z" />
    <glyph glyph-name="d" unicode="d" horiz-adv-x="631" 
d="M426 47c-33 -34 -85 -58 -137 -58c-129 0 -237 89 -237 255c0 137 66 268 201 268c50 0 109 -27 152 -51v225l-60 20v24l176 20v-705s63 -13 63 -14v-25l-127 -17zM298 435c-48 0 -114 -14 -114 -178c0 -185 71 -207 116 -207c47 0 105 42 105 48v322
c-31 9 -73 15 -107 15z" />
    <glyph glyph-name="e" unicode="e" horiz-adv-x="567" 
d="M432 101l41 -35c-36 -46 -101 -77 -173 -77c-114 0 -248 57 -248 260c0 190 110 262 237 262c134 0 228 -71 228 -262v-12h-331c2 -138 49 -191 126 -191c55 0 87 25 120 55zM290 455c-60 0 -98 -31 -104 -167h196c-4 136 -33 167 -92 167z" />
    <glyph glyph-name="f" unicode="f" horiz-adv-x="423" 
d="M39 447v53h62v89c0 125 109 161 165 161c77 0 101 -8 147 -42l-14 -98h-29c-23 66 -54 83 -82 83c-48 0 -71 -33 -71 -100v-93h124v-53h-124v-392s63 -29 63 -30v-25h-242v25c0 1 63 30 63 30v392h-62z" />
    <glyph glyph-name="g" unicode="g" horiz-adv-x="585" 
d="M282 512c36 0 71 -7 101 -20l158 15v-61h-36l-74 15c35 -32 56 -78 56 -139c0 -117 -82 -188 -205 -188c-53 0 -98 11 -132 33c-9 -6 -19 -19 -19 -42c0 -33 39 -42 82 -45c39 -2 159 -9 159 -9c120 -6 181 -37 181 -117c-1 -107 -94 -204 -276 -204
c-184 0 -287 72 -287 154c0 57 49 99 101 114c-20 20 -29 48 -29 79c0 59 57 97 57 97c-28 30 -43 73 -43 128c0 121 76 190 206 190zM193 -20c-19 1 -36 4 -51 9c-37 -12 -50 -45 -50 -73c0 -63 78 -108 185 -108c75 0 177 23 177 107c0 52 -74 55 -125 58zM200 320
c0 -72 10 -134 82 -134c69 0 81 54 81 134c0 73 -12 139 -81 139c-72 0 -82 -56 -82 -139z" />
    <glyph glyph-name="h" unicode="h" horiz-adv-x="642" 
d="M112 55v631l-60 20v24l176 20v-290c53 30 110 52 171 52c93 0 143 -53 143 -141v-316s63 -29 63 -30v-25h-231v25c0 1 52 30 52 30v272c0 61 -16 108 -92 108c-26 0 -69 -6 -106 -15v-365s52 -29 52 -30v-25h-231v25c0 1 63 30 63 30z" />
    <glyph glyph-name="i" unicode="i" horiz-adv-x="341" 
d="M230 55c0 0 63 -29 63 -30v-25h-179v448l-60 20v24l176 20v-457zM172 686c37 0 65 -24 65 -63c0 -37 -27 -61 -65 -61c-36 0 -64 21 -64 61c0 37 23 63 64 63zM114 55v-55h-63v25c0 1 63 30 63 30z" />
    <glyph glyph-name="j" unicode="j" horiz-adv-x="411" 
d="M165 -191c48 0 71 32 71 99v528l-60 20v24l176 20v-578c0 -135 -109 -171 -165 -171c-77 0 -101 8 -147 42l14 98h29c33 -72 54 -82 82 -82zM292 679c37 0 65 -24 65 -63c0 -37 -27 -61 -65 -61c-36 0 -64 21 -64 61c0 37 23 63 64 63z" />
    <glyph glyph-name="k" unicode="k" horiz-adv-x="623" 
d="M113 55v631l-60 20v24l176 20v-496l197 193c-18 9 -53 27 -53 28v25h204v-25c0 -1 -67 -28 -72 -30l-145 -148l169 -242c10 -4 66 -29 66 -30v-25h-163l-152 216l-51 -52v-109s52 -29 52 -30v-25h-231v25c0 1 63 30 63 30z" />
    <glyph glyph-name="l" unicode="l" horiz-adv-x="342" 
d="M114 55v631l-60 20v24l176 20v-695s64 -29 64 -30v-25h-243v25c0 1 63 30 63 30z" />
    <glyph glyph-name="m" unicode="m" horiz-adv-x="942" 
d="M726 55v272c0 61 -16 108 -92 108c-26 0 -69 -6 -107 -15c5 -18 8 -39 8 -63v-302s52 -29 52 -30v-25h-220v25c0 1 52 30 52 30v272c0 61 -16 108 -92 108c-24 0 -65 -6 -101 -14v-366s52 -29 52 -30v-25h-231v25c0 1 63 30 63 30v393l-60 20v24l144 20l23 -54
c55 31 113 54 175 54c58 0 100 -18 123 -59c57 33 118 59 184 59c93 0 143 -46 143 -155v-302s63 -29 63 -30v-25h-231v25c0 1 52 30 52 30z" />
    <glyph glyph-name="n" unicode="n" horiz-adv-x="640" 
d="M110 55v393l-60 20v24l144 20l23 -56c56 32 116 56 180 56c93 0 143 -53 143 -141v-316s63 -29 63 -30v-25h-231v25c0 1 52 30 52 30v272c0 61 -16 108 -92 108c-26 0 -69 -6 -106 -15v-365s52 -29 52 -30v-25h-231v25c0 1 63 30 63 30z" />
    <glyph glyph-name="o" unicode="o" horiz-adv-x="629" 
d="M314 513c148 0 263 -87 263 -262c0 -165 -102 -262 -263 -262c-159 0 -262 84 -262 262c0 168 95 262 262 262zM186 248c0 -100 21 -206 129 -206c113 0 128 94 128 206c0 98 -15 208 -128 208s-129 -94 -129 -208z" />
    <glyph glyph-name="p" unicode="p" horiz-adv-x="627" 
d="M284 -250h-176v698l-60 20v24l154 20l15 -55c47 26 102 55 165 55c109 0 193 -93 193 -268c0 -128 -87 -255 -245 -255c-40 0 -77 16 -106 39v-234l60 -20v-24zM340 435c-31 0 -86 -6 -116 -15v-323c14 -15 59 -47 104 -47c47 0 115 35 115 206c0 165 -55 179 -103 179z
" />
    <glyph glyph-name="q" unicode="q" horiz-adv-x="621" 
d="M405 30c-33 -24 -72 -41 -122 -41c-72 0 -231 47 -231 259c0 143 78 264 193 264c66 0 138 -38 184 -65l47 53h45v-686l60 -40v-24h-176v280zM405 95v325c-35 9 -76 15 -106 15c-48 0 -115 -12 -115 -176c0 -185 70 -209 113 -209c35 0 78 18 108 45z" />
    <glyph glyph-name="r" unicode="r" horiz-adv-x="476" 
d="M48 0v25c0 1 63 30 63 30v393l-60 20v24l153 20l18 -74c31 43 73 74 127 74c43 0 90 -22 104 -45c0 0 -17 -99 -17 -100h-38c-3 19 -35 67 -71 67c-45 0 -76 -10 -100 -64v-315s63 -29 63 -30v-25h-242z" />
    <glyph glyph-name="s" unicode="s" horiz-adv-x="488" 
d="M161 391c0 -103 274 -70 274 -244c0 -141 -136 -158 -215 -158c-40 0 -102 4 -167 43l15 97l29 1c23 -71 87 -88 121 -88c64 0 106 24 106 81c0 93 -265 61 -265 228c0 109 109 161 186 161c80 0 119 -19 162 -45l-14 -97h-30c-20 71 -61 88 -118 88
c-54 0 -84 -27 -84 -67z" />
    <glyph glyph-name="t" unicode="t" horiz-adv-x="404" 
d="M50 447v53h68l70 128h48v-128h116v-53h-116v-327c0 -47 5 -80 54 -80h46l7 -23c-25 -21 -52 -28 -83 -28c-74 0 -140 29 -140 145v313h-70z" />
    <glyph glyph-name="u" unicode="u" horiz-adv-x="626" 
d="M214 174c0 -61 16 -108 92 -108c25 0 68 5 106 14v368l-60 20v24l176 20v-460l60 -20v-24l-138 -19l-29 56c-56 -32 -116 -56 -180 -56c-93 0 -143 53 -143 141v318l-60 20v24l176 20v-338z" />
    <glyph glyph-name="v" unicode="v" horiz-adv-x="606" 
d="M14 475v25h240v-25c0 -1 -29 -15 -50 -25l128 -310l133 312c-17 9 -39 22 -39 23v25h169v-25c0 -1 -59 -27 -70 -31l-188 -444h-64l-187 443c-8 3 -72 31 -72 32z" />
    <glyph glyph-name="w" unicode="w" horiz-adv-x="860" 
d="M557 0l-120 283l-103 -283h-61l-187 443c-5 2 -72 31 -72 32v25h240v-25c0 -1 -29 -15 -50 -25l125 -299l76 208l-38 92c-11 5 -46 23 -46 24v25h220v-25l-55 -24l126 -302l111 302c-18 10 -42 23 -42 24v25h168v-25c0 -1 -52 -23 -68 -30l-163 -445h-61z" />
    <glyph glyph-name="x" unicode="x" horiz-adv-x="571" 
d="M459 447l-131 -174l143 -221l74 -27v-25h-249v25l53 21l7 -11l-93 144l-103 -135l50 -19v-25h-184v25l74 27l134 172l-144 223v1l-63 27v25h237v-25l-53 -21l87 -135l103 136l-49 20v25h170v-25z" />
    <glyph glyph-name="y" unicode="y" horiz-adv-x="596" 
d="M8 475v25h240v-25c0 -1 -29 -15 -50 -25l128 -309l132 311l-40 23v25h162v-25l-59 -30l-169 -398l-71 -168c-29 -68 -69 -129 -142 -129c-34 0 -79 2 -128 42l14 98h29c25 -54 42 -82 84 -82c34 0 56 22 78 73l50 119l-186 443c-8 3 -72 31 -72 32z" />
    <glyph glyph-name="z" unicode="z" horiz-adv-x="550" 
d="M58 0v55l294 392h-202l-24 -104h-39l-19 157h421v-53l-294 -392h221l35 83h30l7 -138h-430z" />
    <glyph glyph-name="braceleft" unicode="{" horiz-adv-x="361" 
d="M25 235v34c88 0 91 164 91 313c0 92 73 149 198 149v-42c-72 0 -99 -43 -99 -96v-19c0 -139 0 -303 -89 -326c87 -23 89 -171 89 -303v-40c0 -53 27 -95 99 -95v-42c-125 0 -198 55 -198 148c0 150 -3 319 -91 319z" />
    <glyph glyph-name="bar" unicode="|" 
d="M294 -264v1012h80v-1012h-80z" />
    <glyph glyph-name="braceright" unicode="}" 
d="M394 269v-34c-88 0 -91 -169 -91 -319c0 -93 -73 -148 -198 -148v42c72 0 99 42 99 95v40c0 132 2 280 89 303c-89 23 -89 187 -89 326v19c0 53 -27 96 -99 96v42c125 0 198 -57 198 -149c0 -149 3 -313 91 -313z" />
    <glyph glyph-name="asciitilde" unicode="~" horiz-adv-x="800" 
d="M510 304c-79 0 -174 79 -227 79c-34 0 -60 -7 -108 -55l-24 14l94 139c24 4 34 5 47 5c66 0 175 -79 228 -79c34 0 60 7 107 55l25 -14l-94 -139c-25 -4 -34 -5 -48 -5z" />
    <glyph glyph-name="exclamdown" unicode="&#xa1;" horiz-adv-x="340" 
d="M170 415c-37 0 -65 24 -65 63c0 37 27 61 65 61c36 0 64 -21 64 -61c0 -37 -23 -63 -64 -63zM170 365l30 -1l29 -480v-56h-118v56l29 480z" />
    <glyph glyph-name="cent" unicode="&#xa2;" horiz-adv-x="535" 
d="M280 -153v145c-144 16 -228 116 -228 259c0 141 85 241 228 258v130h70v-129c58 -5 94 -18 137 -44l-14 -121h-32c-18 76 -40 102 -91 108v-404c33 5 64 24 94 85l29 -1l14 -98c-43 -27 -79 -39 -137 -44v-144h-70zM280 449c-74 -18 -95 -86 -95 -199s21 -180 95 -198
v397z" />
    <glyph glyph-name="yen" unicode="&#xa5;" horiz-adv-x="724" 
d="M136 134l-3 77s75 1 164 1v56h-161l-3 76s53 0 123 1l-164 300c-7 2 -77 29 -77 30v25h289v-25c0 -1 -53 -25 -63 -29l159 -292l157 291c-9 4 -63 29 -63 30v25h215v-25c0 -1 -78 -30 -78 -30l-163 -299c63 1 113 1 123 1c0 0 -2 -65 -2 -76c-18 -1 -85 -1 -162 -2v-56
c81 0 152 1 164 1c0 0 -2 -67 -2 -77c-18 -1 -85 -1 -162 -2v-80s63 -29 63 -30v-25h-193v134h-161zM297 55v-55h-63v25c0 1 63 30 63 30z" />
    <glyph glyph-name="dieresis" unicode="&#xa8;" horiz-adv-x="600" 
d="M189 682c35 0 61 -23 61 -59c0 -34 -25 -57 -61 -57c-32 0 -58 21 -58 57c0 35 21 59 58 59zM400 682c33 0 59 -23 59 -59c0 -34 -25 -57 -59 -57s-60 21 -60 57c0 35 21 59 60 59z" />
    <glyph glyph-name="copyright" unicode="&#xa9;" horiz-adv-x="511" 
d="M59 519c0 100 81 181 178 181c100 0 181 -81 181 -181c0 -97 -81 -178 -181 -178c-97 0 -178 81 -178 178zM96 519c0 -77 64 -141 141 -141c80 0 144 64 144 141c0 80 -64 144 -144 144c-77 0 -141 -64 -141 -144zM244 610h-4c-38 0 -59 -44 -59 -90c0 -57 20 -84 57 -84
h4c19 0 36 18 48 55h11l4 -58c-16 -10 -36 -19 -63 -19h-6c-64 0 -101 51 -101 108c0 56 41 107 104 107h5c25 0 44 -9 61 -20l-5 -45h-11c-10 38 -26 46 -45 46z" />
    <glyph glyph-name="ordfeminine" unicode="&#xaa;" horiz-adv-x="332" 
d="M73 543l-8 55c32 19 57 27 111 27c56 0 105 -27 105 -99v-159s36 -5 36 -6v-14l-79 -12l-11 31c-15 -23 -50 -37 -86 -37c-53 0 -99 20 -99 87c0 61 46 84 110 85c20 0 42 -1 64 -4v43c0 34 -20 48 -58 48c-26 0 -48 -2 -69 -45h-16zM216 471c-83 0 -103 -16 -103 -52
c0 -29 7 -53 47 -53c23 0 56 12 56 40v65z" />
    <glyph glyph-name="guillemotleft" unicode="&#xab;" 
d="M280 252l253 223l44 -23l-159 -200l159 -200l-44 -23zM200 252h-138l253 223l44 -23zM62 252h138l159 -200l-44 -23z" />
    <glyph glyph-name="logicalnot" unicode="&#xac;" horiz-adv-x="475" 
d="M24 385v70h420v-217h-55v147h-365z" />
    <glyph glyph-name="registered" unicode="&#xae;" horiz-adv-x="469" 
d="M96 519c0 -77 64 -141 141 -141c80 0 144 64 144 141c0 80 -64 144 -144 144c-77 0 -141 -64 -141 -144zM59 519c0 100 81 181 178 181c100 0 181 -81 181 -181c0 -97 -81 -178 -181 -178c-97 0 -178 81 -178 178zM175 444v157l-20 8v7h75c55 0 79 -13 79 -50
c0 -23 -15 -39 -44 -46l45 -77l21 -8v-6h-52l-54 89h-15v-74l17 -9v-6h-72v6zM210 601v-67h20c31 0 42 13 42 33c0 19 -8 34 -42 34h-20z" />
    <glyph glyph-name="degree" unicode="&#xb0;" horiz-adv-x="340" 
d="M105 497c0 -40 34 -74 74 -74c42 0 76 34 76 74c0 42 -34 76 -76 76c-40 0 -74 -34 -74 -76zM53 497c0 71 58 129 126 129c71 0 129 -58 129 -129c0 -68 -58 -126 -129 -126c-68 0 -126 58 -126 126z" />
    <glyph glyph-name="plusminus" unicode="&#xb1;" 
d="M141 288v63h135v134h67v-134h136v-63h-136v-141h-67v141h-135zM141 12v63h328v-63h-328z" />
    <glyph glyph-name="twosuperior" unicode="&#xb2;" horiz-adv-x="530" 
d="M404 538c0 -55 -68 -99 -136 -162h106c7 21 14 44 15 44h17v-86h-196v25c17 29 132 134 132 190c0 33 -17 45 -42 45c-32 0 -47 -28 -60 -68h-17l-6 72c30 17 46 24 93 24c61 0 94 -34 94 -84z" />
    <glyph glyph-name="threesuperior" unicode="&#xb3;" horiz-adv-x="492" 
d="M276 452v25h13h6c41 2 52 22 53 56v4c0 37 -14 51 -41 51c-34 0 -48 -19 -60 -52h-17l-7 59c33 18 66 26 94 26c34 0 105 -14 105 -88c-1 -29 -17 -53 -50 -67c37 -13 55 -37 55 -75v-4c0 -81 -84 -92 -126 -92c-25 0 -66 8 -93 26l7 67h17c10 -28 25 -55 65 -55
c32 0 54 21 54 50v8c0 28 -4 58 -57 61h-5h-4h-9z" />
    <glyph glyph-name="cedilla" unicode="&#xb8;" 
d="M260 -86l3 22l12 93h36l-9 -79c11 2 21 3 32 3c58 0 85 -27 85 -60c0 -49 -37 -84 -93 -84c-36 0 -74 9 -87 18l4 33c6 -5 29 -14 50 -14c22 0 53 11 53 35c0 20 -8 37 -40 37c-13 0 -31 0 -46 -4z" />
    <glyph glyph-name="onesuperior" unicode="&#xb9;" horiz-adv-x="323" 
d="M286 362v210l-60 -11v14l113 61v-274s45 -13 45 -14v-13h-144v13c0 1 46 14 46 14z" />
    <glyph glyph-name="guillemotright" unicode="&#xbb;" 
d="M439 252l-159 200l44 23l253 -223l-253 -223l-44 23zM221 252l-159 200l44 23l253 -223l-253 -223l-44 23z" />
    <glyph glyph-name="onequarter" unicode="&#xbc;" horiz-adv-x="1317" 
d="M189 360c0 0 44 -13 44 -14v-12h-100v254l-64 -12v12l120 64v-292zM133 360v-26h-45v12c0 1 45 14 45 14zM182 0l311 655h57l-310 -655h-58zM445 0v13l47 15v59h-130v47l157 197h32v-197h59v-47h-59v-59l46 -15v-13h-152zM404 134h88v110z" />
    <glyph glyph-name="onehalf" unicode="&#xbd;" horiz-adv-x="1297" 
d="M151 363l44 -14v-12h-98v248l-62 -11v11l116 63v-285zM97 363v-26h-44v12zM122 0l310 652h57l-310 -652h-57zM586 0h-210v27c19 29 144 150 144 208c0 37 -17 52 -44 52c-36 0 -50 -34 -63 -75h-17l-7 74c32 18 50 25 99 25c69 0 98 -36 98 -88c0 -57 -81 -106 -145 -179
h111c8 22 17 49 17 49h17v-93z" />
    <glyph glyph-name="threequarters" unicode="&#xbe;" horiz-adv-x="1486" 
d="M105 459v25h14h2c45 1 56 22 57 57v4c0 37 -14 59 -42 59c-30 0 -49 -35 -60 -68h-17l-7 67c32 19 66 27 95 27c34 0 106 -14 106 -89c-1 -30 -17 -54 -51 -68c37 -13 56 -38 56 -75v-5c-1 -82 -85 -93 -128 -93c-25 0 -66 8 -94 26l7 69h18c9 -29 32 -69 65 -69
s55 31 55 63v9c0 28 -4 59 -63 61h-13zM149 0l310 652h57l-310 -652h-57zM392 0v13c0 1 49 16 49 16v61h-134v49l162 203h32v-203h62v-49h-62v-61s48 -15 48 -16v-13h-157zM350 139h91v113z" />
    <glyph glyph-name="questiondown" unicode="&#xbf;" horiz-adv-x="480" 
d="M316 394l33 -1l5 -74c6 -87 -180 -149 -180 -290c0 -90 39 -134 104 -134c95 0 120 70 154 158h36l14 -156c-53 -29 -121 -53 -216 -53c-123 0 -230 46 -230 203c0 156 231 217 246 309l4 37zM319 444c-37 0 -65 24 -65 63c0 37 27 61 65 61c36 0 64 -21 64 -61
c0 -37 -23 -63 -64 -63z" />
    <glyph glyph-name="Agrave" unicode="&#xc0;" horiz-adv-x="626" 
d="M120 938l146 -163l-27 -25l-160 97l-26 27zM292 700l-57 18l-254 -665c-17 -6 -72 -27 -72 -28v-25h204v25c0 1 -59 24 -65 27l72 190h210l73 -187c-3 -2 -64 -29 -64 -30v-25h280v25c0 1 -56 22 -73 28zM139 293l84 223l87 -223h-171z" />
    <glyph glyph-name="Aacute" unicode="&#xc1;" horiz-adv-x="760" 
d="M381 774l146 163l67 -64l-26 -27l-160 -97zM441 700l-57 18l-254 -665c-17 -6 -72 -27 -72 -28v-25h204v25c0 1 -59 24 -65 27l72 190h210l73 -187c-3 -2 -64 -29 -64 -30v-25h280v25c0 1 -56 22 -73 28zM288 293l84 223l87 -223h-171z" />
    <glyph glyph-name="Acircumflex" unicode="&#xc2;" horiz-adv-x="745" 
d="M406 700l-57 18l-254 -665c-17 -6 -72 -27 -72 -28v-25h204v25c0 1 -59 24 -65 27l72 190h210l73 -187c-3 -2 -64 -29 -64 -30v-25h280v25c0 1 -56 22 -73 28zM253 293l84 223l87 -223h-171zM199 765l178 148l163 -148l-17 -33l-153 84l-159 -84z" />
    <glyph glyph-name="Atilde" unicode="&#xc3;" horiz-adv-x="745" 
d="M406 700l-57 18l-254 -665c-17 -6 -72 -27 -72 -28v-25h204v25c0 1 -59 24 -65 27l72 190h210l73 -187c-3 -2 -64 -29 -64 -30v-25h280v25c0 1 -56 22 -73 28zM253 293l84 223l87 -223h-171zM470 750c-65 0 -144 65 -187 65c-28 0 -49 -5 -89 -45l-20 12l77 114
c20 3 28 4 39 4c54 0 143 -65 187 -65c28 0 49 5 88 45l21 -12l-77 -114c-21 -3 -28 -4 -39 -4z" />
    <glyph glyph-name="Adieresis" unicode="&#xc4;" horiz-adv-x="745" 
d="M406 700l-57 18l-254 -665c-17 -6 -72 -27 -72 -28v-25h204v25c0 1 -59 24 -65 27l72 190h210l73 -187c-3 -2 -64 -29 -64 -30v-25h280v25c0 1 -56 22 -73 28zM253 293l84 223l87 -223h-171zM262 873c35 0 61 -23 61 -59c0 -34 -25 -57 -61 -57c-32 0 -58 21 -58 57
c0 35 21 59 58 59zM473 873c33 0 59 -23 59 -59c0 -34 -25 -57 -59 -57s-60 21 -60 57c0 35 21 59 60 59z" />
    <glyph glyph-name="AE" unicode="&#xc6;" horiz-adv-x="800" 
d="M-47 0v25c0 1 59 23 74 29l270 646h421v-176h-36c-2 0 -25 69 -42 121h-211v-270h137s29 78 30 78h25v-207h-25c-1 0 -30 78 -30 78h-137v-269h221c17 51 40 121 42 121h36v-176h-412v242h-138l-78 -191c8 -3 63 -25 63 -26v-25h-210zM316 580l-117 -287h117v287z" />
    <glyph glyph-name="Ccedilla" unicode="&#xc7;" horiz-adv-x="639" 
d="M302 -90l27 109l31 6l-21 -77c11 4 33 8 43 8c58 0 81 -36 81 -69c0 -42 -43 -78 -99 -78c-36 0 -72 9 -85 18l10 38c6 -5 31 -19 54 -19c40 0 60 17 60 39c0 20 -13 35 -48 35c-13 0 -37 -2 -53 -10zM398 39c62 0 119 34 160 159h36l14 -156c-57 -34 -123 -53 -209 -53
h-22c-218 0 -342 173 -342 362c0 188 126 362 342 362h22c87 0 153 -19 210 -53l-14 -156h-36c-41 124 -98 158 -159 159h-23c-135 0 -188 -159 -188 -316c0 -196 64 -308 189 -308h20z" />
    <glyph glyph-name="Egrave" unicode="&#xc8;" horiz-adv-x="615" 
d="M233 937l146 -163l-27 -25l-160 97l-26 27zM111 55v590s-78 29 -78 30v25h78h472v-176h-36c-2 0 -25 69 -42 121h-264v-270h190s29 78 30 78h25v-207h-25c-1 0 -30 78 -30 78h-190v-269h274c17 51 40 121 42 121h36v-176h-560v25c0 1 78 30 78 30z" />
    <glyph glyph-name="Eacute" unicode="&#xc9;" horiz-adv-x="615" 
d="M282 773l146 163l67 -64l-26 -27l-160 -97zM111 55v590s-78 29 -78 30v25h78h472v-176h-36c-2 0 -25 69 -42 121h-264v-270h190s29 78 30 78h25v-207h-25c-1 0 -30 78 -30 78h-190v-269h274c17 51 40 121 42 121h36v-176h-560v25c0 1 78 30 78 30z" />
    <glyph glyph-name="Ecircumflex" unicode="&#xca;" horiz-adv-x="650" 
d="M138 55v590s-78 29 -78 30v25h78h472v-176h-36c-2 0 -25 69 -42 121h-264v-270h190s29 78 30 78h25v-207h-25c-1 0 -30 78 -30 78h-190v-269h274c17 51 40 121 42 121h36v-176h-560v25c0 1 78 30 78 30zM190 765l178 148l163 -148l-17 -33l-153 84l-159 -84z" />
    <glyph glyph-name="Edieresis" unicode="&#xcb;" horiz-adv-x="650" 
d="M138 55v590s-78 29 -78 30v25h78h472v-176h-36c-2 0 -25 69 -42 121h-264v-270h190s29 78 30 78h25v-207h-25c-1 0 -30 78 -30 78h-190v-269h274c17 51 40 121 42 121h36v-176h-560v25c0 1 78 30 78 30zM234 873c35 0 61 -23 61 -59c0 -34 -25 -57 -61 -57
c-32 0 -58 21 -58 57c0 35 21 59 58 59zM445 873c33 0 59 -23 59 -59c0 -34 -25 -57 -59 -57s-60 21 -60 57c0 35 21 59 60 59z" />
    <glyph glyph-name="Igrave" unicode="&#xcc;" horiz-adv-x="283" 
d="M33 938l146 -163l-27 -25l-160 97l-26 27zM12 0v25c0 1 63 30 63 30v590s-63 29 -63 30v25h256v-25c0 -1 -63 -30 -63 -30v-590s63 -29 63 -30v-25h-256z" />
    <glyph glyph-name="Iacute" unicode="&#xcd;" horiz-adv-x="283" 
d="M112 775l146 163l67 -64l-26 -27l-160 -97zM12 0v25c0 1 63 30 63 30v590s-63 29 -63 30v25h256v-25c0 -1 -63 -30 -63 -30v-590s63 -29 63 -30v-25h-256z" />
    <glyph glyph-name="Icircumflex" unicode="&#xce;" horiz-adv-x="283" 
d="M-23 765l160 173l161 -173l-27 -25l-134 85l-133 -85zM12 0v25c0 1 63 30 63 30v590s-63 29 -63 30v25h256v-25c0 -1 -63 -30 -63 -30v-590s63 -29 63 -30v-25h-256z" />
    <glyph glyph-name="Idieresis" unicode="&#xcf;" horiz-adv-x="376" 
d="M60 0v25c0 1 63 30 63 30v590s-63 29 -63 30v25h256v-25c0 -1 -63 -30 -63 -30v-590s63 -29 63 -30v-25h-256zM84 873c35 0 61 -23 61 -59c0 -34 -25 -57 -61 -57c-32 0 -58 21 -58 57c0 35 21 59 58 59zM295 873c33 0 59 -23 59 -59c0 -34 -25 -57 -59 -57
s-60 21 -60 57c0 35 21 59 60 59z" />
    <glyph glyph-name="Eth" unicode="&#xd0;" horiz-adv-x="761" 
d="M356 0h-218v300h-103v78h103v267s-78 29 -78 30v25h78h218c237 0 369 -146 369 -341v-17c0 -174 -113 -342 -369 -342zM268 649v-271h115v-78h-115v-249h88c147 0 223 117 223 291v7c0 154 -76 300 -223 300h-88zM138 55v-55h-78v25c0 1 78 30 78 30z" />
    <glyph glyph-name="Ntilde" unicode="&#xd1;" horiz-adv-x="706" 
d="M571 0h62v645s78 29 78 30v25h-142l1 -476l-348 476h-205v-25c0 -1 78 -30 78 -30v4l2 -594s-78 -29 -78 -30v-25h205v25c0 1 -65 30 -65 30v507zM569 645v55h-65v-25c0 -1 65 -30 65 -30zM456 750c-65 0 -144 65 -187 65c-28 0 -49 -5 -89 -45l-20 12l77 114
c20 3 28 4 39 4c54 0 143 -65 187 -65c28 0 49 5 88 45l21 -12l-77 -114c-21 -3 -28 -4 -39 -4z" />
    <glyph glyph-name="Ograve" unicode="&#xd2;" horiz-adv-x="702" 
d="M233 938l146 -163l-27 -25l-160 97l-26 27zM354 713c219 0 360 -172 360 -362c0 -177 -130 -362 -360 -362c-231 0 -354 172 -354 362c0 178 118 362 354 362zM155 347c0 -191 55 -308 200 -308c154 0 198 141 198 308c0 143 -55 316 -199 316
c-155 0 -199 -159 -199 -316z" />
    <glyph glyph-name="Oacute" unicode="&#xd3;" horiz-adv-x="702" 
d="M338 775l146 163l67 -64l-26 -27l-160 -97zM354 713c219 0 360 -172 360 -362c0 -177 -130 -362 -360 -362c-231 0 -354 172 -354 362c0 178 118 362 354 362zM155 347c0 -191 55 -308 200 -308c154 0 198 141 198 308c0 143 -55 316 -199 316
c-155 0 -199 -159 -199 -316z" />
    <glyph glyph-name="Ocircumflex" unicode="&#xd4;" horiz-adv-x="702" 
d="M354 713c219 0 360 -172 360 -362c0 -177 -130 -362 -360 -362c-231 0 -354 172 -354 362c0 178 118 362 354 362zM155 347c0 -191 55 -308 200 -308c154 0 198 141 198 308c0 143 -55 316 -199 316c-155 0 -199 -159 -199 -316zM185 765l178 148l163 -148l-17 -33
l-153 84l-159 -84z" />
    <glyph glyph-name="Otilde" unicode="&#xd5;" horiz-adv-x="702" 
d="M354 713c219 0 360 -172 360 -362c0 -177 -130 -362 -360 -362c-231 0 -354 172 -354 362c0 178 118 362 354 362zM155 347c0 -191 55 -308 200 -308c154 0 198 141 198 308c0 143 -55 316 -199 316c-155 0 -199 -159 -199 -316zM440 750c-65 0 -144 65 -187 65
c-28 0 -49 -5 -89 -45l-20 12l77 114c20 3 28 4 39 4c54 0 143 -65 187 -65c28 0 49 5 88 45l21 -12l-77 -114c-21 -3 -28 -4 -39 -4z" />
    <glyph glyph-name="Odieresis" unicode="&#xd6;" horiz-adv-x="784" 
d="M389 713c219 0 360 -172 360 -362c0 -177 -130 -362 -360 -362c-231 0 -354 172 -354 362c0 178 118 362 354 362zM190 347c0 -191 55 -308 200 -308c154 0 198 141 198 308c0 143 -55 316 -199 316c-155 0 -199 -159 -199 -316zM281 873c35 0 61 -23 61 -59
c0 -34 -25 -57 -61 -57c-32 0 -58 21 -58 57c0 35 21 59 58 59zM492 873c33 0 59 -23 59 -59c0 -34 -25 -57 -59 -57s-60 21 -60 57c0 35 21 59 60 59z" />
    <glyph glyph-name="multiply" unicode="&#xd7;" horiz-adv-x="503" 
d="M106 359l48 50s46 -46 99 -98l97 98s40 -41 48 -49c-13 -14 -53 -54 -96 -98l99 -98s-42 -41 -49 -48c-14 13 -55 53 -99 97c-52 -53 -98 -98 -98 -98l-50 47s46 47 98 100c-52 51 -97 97 -97 97z" />
    <glyph glyph-name="Ugrave" unicode="&#xd9;" horiz-adv-x="650" 
d="M269 938l146 -163l-27 -25l-160 97l-26 27zM85 700h130v-419c0 -140 50 -232 168 -232h13c78 0 168 37 168 231v365s-65 29 -65 30v25h65h143v-25c0 -1 -78 -30 -78 -30v-372c0 -210 -107 -284 -242 -284h-15c-183 0 -287 71 -287 262v394s-78 29 -78 30v25h78zM215 645
v55h65v-25c0 -1 -65 -30 -65 -30z" />
    <glyph glyph-name="Uacute" unicode="&#xda;" horiz-adv-x="650" 
d="M362 773l146 163l67 -64l-26 -27l-160 -97zM85 700h130v-419c0 -140 50 -232 168 -232h13c78 0 168 37 168 231v365s-65 29 -65 30v25h65h143v-25c0 -1 -78 -30 -78 -30v-372c0 -210 -107 -284 -242 -284h-15c-183 0 -287 71 -287 262v394s-78 29 -78 30v25h78zM215 645
v55h65v-25c0 -1 -65 -30 -65 -30z" />
    <glyph glyph-name="Ucircumflex" unicode="&#xdb;" horiz-adv-x="650" 
d="M85 700h130v-419c0 -140 50 -232 168 -232h13c78 0 168 37 168 231v365s-65 29 -65 30v25h65h143v-25c0 -1 -78 -30 -78 -30v-372c0 -210 -107 -284 -242 -284h-15c-183 0 -287 71 -287 262v394s-78 29 -78 30v25h78zM215 645v55h65v-25c0 -1 -65 -30 -65 -30zM203 765
l178 148l163 -148l-17 -33l-153 84l-159 -84z" />
    <glyph glyph-name="Udieresis" unicode="&#xdc;" horiz-adv-x="716" 
d="M93 700h130v-419c0 -140 50 -232 168 -232h13c78 0 168 37 168 231v365s-65 29 -65 30v25h65h143v-25c0 -1 -78 -30 -78 -30v-372c0 -210 -107 -284 -242 -284h-15c-183 0 -287 71 -287 262v394s-78 29 -78 30v25h78zM223 645v55h65v-25c0 -1 -65 -30 -65 -30zM292 873
c35 0 61 -23 61 -59c0 -34 -25 -57 -61 -57c-32 0 -58 21 -58 57c0 35 21 59 58 59zM503 873c33 0 59 -23 59 -59c0 -34 -25 -57 -59 -57s-60 21 -60 57c0 35 21 59 60 59z" />
    <glyph glyph-name="Yacute" unicode="&#xdd;" horiz-adv-x="605" 
d="M322 774l146 163l67 -64l-26 -27l-160 -97zM238 270v-215s-63 -29 -63 -30v-25h256v25c0 1 -63 30 -63 30v215l204 375s78 29 78 30v25h-212v-25c0 -1 54 -26 63 -30l-162 -300l-164 301c10 4 63 28 63 29v25h-282v-25c0 -1 68 -26 77 -30z" />
    <glyph glyph-name="agrave" unicode="&#xe0;" horiz-adv-x="583" 
d="M168 750l146 -163l-27 -25l-160 97l-26 27zM115 368l-14 97c56 34 100 47 196 47c98 0 186 -48 186 -174v-282s63 -9 63 -10v-25l-140 -21l-19 54c-23 -39 -82 -65 -152 -65c-93 0 -175 22 -175 154c0 117 82 148 194 150c35 0 74 -2 113 -6v75c0 61 -35 92 -102 92
c-45 0 -84 -10 -121 -87zM367 248c-162 0 -181 -24 -181 -100c0 -51 10 -104 82 -104c42 0 99 22 99 70v134z" />
    <glyph glyph-name="aacute" unicode="&#xe1;" horiz-adv-x="583" 
d="M247 587l146 163l67 -64l-26 -27l-160 -97zM115 368l-14 97c56 34 100 47 196 47c98 0 186 -48 186 -174v-282s63 -9 63 -10v-25l-140 -21l-19 54c-23 -39 -82 -65 -152 -65c-93 0 -175 22 -175 154c0 117 82 148 194 150c35 0 74 -2 113 -6v75c0 61 -35 92 -102 92
c-45 0 -84 -10 -121 -87zM367 248c-162 0 -181 -24 -181 -100c0 -51 10 -104 82 -104c42 0 99 22 99 70v134z" />
    <glyph glyph-name="acircumflex" unicode="&#xe2;" horiz-adv-x="583" 
d="M115 368l-14 97c56 34 100 47 196 47c98 0 186 -48 186 -174v-282s63 -9 63 -10v-25l-140 -21l-19 54c-23 -39 -82 -65 -152 -65c-93 0 -175 22 -175 154c0 117 82 148 194 150c35 0 74 -2 113 -6v75c0 61 -35 92 -102 92c-45 0 -84 -10 -121 -87zM367 248
c-162 0 -181 -24 -181 -100c0 -51 10 -104 82 -104c42 0 99 22 99 70v134zM118 603l178 148l163 -148l-17 -33l-153 84l-159 -84z" />
    <glyph glyph-name="atilde" unicode="&#xe3;" horiz-adv-x="583" 
d="M115 368l-14 97c56 34 100 47 196 47c98 0 186 -48 186 -174v-282s63 -9 63 -10v-25l-140 -21l-19 54c-23 -39 -82 -65 -152 -65c-93 0 -175 22 -175 154c0 117 82 148 194 150c35 0 74 -2 113 -6v75c0 61 -35 92 -102 92c-45 0 -84 -10 -121 -87zM367 248
c-162 0 -181 -24 -181 -100c0 -51 10 -104 82 -104c42 0 99 22 99 70v134zM390 556c-65 0 -144 65 -187 65c-28 0 -49 -5 -89 -45l-20 12l77 114c20 3 28 4 39 4c54 0 143 -65 187 -65c28 0 49 5 88 45l21 -12l-77 -114c-21 -3 -28 -4 -39 -4z" />
    <glyph glyph-name="adieresis" unicode="&#xe4;" horiz-adv-x="526" 
d="M75 368l-14 97c56 34 100 47 196 47c98 0 186 -48 186 -174v-282s63 -9 63 -10v-25l-140 -21l-19 54c-23 -39 -82 -65 -152 -65c-93 0 -175 22 -175 154c0 117 82 148 194 150c35 0 74 -2 113 -6v75c0 61 -35 92 -102 92c-45 0 -84 -10 -121 -87zM327 248
c-162 0 -181 -24 -181 -100c0 -51 10 -104 82 -104c42 0 99 22 99 70v134zM149 690c35 0 61 -23 61 -59c0 -34 -25 -57 -61 -57c-32 0 -58 21 -58 57c0 35 21 59 58 59zM360 690c33 0 59 -23 59 -59c0 -34 -25 -57 -59 -57s-60 21 -60 57c0 35 21 59 60 59z" />
    <glyph glyph-name="aring" unicode="&#xe5;" horiz-adv-x="583" 
d="M115 368l-14 97c56 34 100 47 196 47c98 0 186 -48 186 -174v-282s63 -9 63 -10v-25l-140 -21l-19 54c-23 -39 -82 -65 -152 -65c-93 0 -175 22 -175 154c0 117 82 148 194 150c35 0 74 -2 113 -6v75c0 61 -35 92 -102 92c-45 0 -84 -10 -121 -87zM367 248
c-162 0 -181 -24 -181 -100c0 -51 10 -104 82 -104c42 0 99 22 99 70v134z" />
    <glyph glyph-name="ae" unicode="&#xe6;" horiz-adv-x="853" 
d="M715 101l41 -35c-36 -46 -101 -77 -173 -77s-143 22 -187 89c-23 -39 -56 -88 -175 -88c-93 0 -175 32 -175 154c0 117 82 148 194 150c35 0 74 -2 113 -6v75c0 61 -35 92 -102 92c-45 0 -84 -10 -121 -87l-29 1l-14 97c56 34 100 47 196 47c55 0 108 -22 143 -58
c37 34 88 56 146 56c135 0 216 -71 216 -262v-8h-319c2 -138 49 -195 126 -195c55 0 87 25 120 55zM254 44c42 0 99 26 99 74v126c-157 0 -181 -29 -181 -95c0 -51 10 -105 82 -105zM573 455c-60 0 -98 -31 -104 -167h189c-5 136 -29 167 -85 167z" />
    <glyph glyph-name="ccedilla" unicode="&#xe7;" horiz-adv-x="535" 
d="M233 -86l3 22l12 93l39 10l-12 -89c11 2 22 3 32 3c58 0 85 -27 85 -60c0 -49 -37 -84 -93 -84c-36 0 -74 9 -87 18l4 33c6 -5 29 -14 50 -14c22 0 53 11 53 35c0 20 -8 37 -40 37c-11 0 -24 0 -37 -2h-3zM324 -11c-170 0 -272 105 -272 262c0 155 102 261 272 261
c74 -3 114 -16 163 -46l-14 -121h-32c-20 88 -46 109 -117 109c-110 0 -139 -71 -139 -203c0 -133 29 -204 139 -204c44 0 83 11 120 87l29 -1l14 -98c-49 -30 -89 -43 -163 -46z" />
    <glyph glyph-name="egrave" unicode="&#xe8;" horiz-adv-x="519" 
d="M158 750l146 -163l-27 -25l-160 97l-26 27zM409 101l41 -35c-36 -46 -101 -77 -173 -77c-114 0 -248 57 -248 260c0 190 110 262 237 262c134 0 228 -71 228 -262v-12h-331c2 -138 49 -191 126 -191c55 0 87 25 120 55zM267 455c-60 0 -98 -31 -104 -167h196
c-4 136 -33 167 -92 167z" />
    <glyph glyph-name="eacute" unicode="&#xe9;" horiz-adv-x="519" 
d="M238 587l146 163l67 -64l-26 -27l-160 -97zM409 101l41 -35c-36 -46 -101 -77 -173 -77c-114 0 -248 57 -248 260c0 190 110 262 237 262c134 0 228 -71 228 -262v-12h-331c2 -138 49 -191 126 -191c55 0 87 25 120 55zM267 455c-60 0 -98 -31 -104 -167h196
c-4 136 -33 167 -92 167z" />
    <glyph glyph-name="ecircumflex" unicode="&#xea;" horiz-adv-x="543" 
d="M432 101l41 -35c-36 -46 -101 -77 -173 -77c-114 0 -248 57 -248 260c0 190 110 262 237 262c134 0 228 -71 228 -262v-12h-331c2 -138 49 -191 126 -191c55 0 87 25 120 55zM290 455c-60 0 -98 -31 -104 -167h196c-4 136 -33 167 -92 167zM116 602l178 148l163 -148
l-17 -33l-153 84l-159 -84z" />
    <glyph glyph-name="edieresis" unicode="&#xeb;" horiz-adv-x="520" 
d="M409 101l41 -35c-36 -46 -101 -77 -173 -77c-114 0 -248 57 -248 260c0 190 110 262 237 262c134 0 228 -71 228 -262v-12h-331c2 -138 49 -191 126 -191c55 0 87 25 120 55zM267 455c-60 0 -98 -31 -104 -167h196c-4 136 -33 167 -92 167zM160 690c35 0 61 -23 61 -59
c0 -34 -25 -57 -61 -57c-32 0 -58 21 -58 57c0 35 21 59 58 59zM371 690c33 0 59 -23 59 -59c0 -34 -25 -57 -59 -57s-60 21 -60 57c0 35 21 59 60 59z" />
    <glyph glyph-name="igrave" unicode="&#xec;" horiz-adv-x="403" 
d="M176 55v393l-60 20v24l176 20v-457s63 -29 63 -30v-25h-242v25c0 1 63 30 63 30zM118 750l146 -163l-27 -25l-160 97l-26 27z" />
    <glyph glyph-name="iacute" unicode="&#xed;" horiz-adv-x="386" 
d="M114 55v393l-60 20v24l176 20v-457s63 -29 63 -30v-25h-242v25c0 1 63 30 63 30zM125 587l146 163l67 -64l-26 -27l-160 -97z" />
    <glyph glyph-name="icircumflex" unicode="&#xee;" horiz-adv-x="440" 
d="M168 55v393l-60 20v24l176 20v-457s63 -29 63 -30v-25h-242v25c0 1 63 30 63 30zM51 602l178 148l163 -148l-17 -33l-153 84l-159 -84z" />
    <glyph glyph-name="idieresis" unicode="&#xef;" horiz-adv-x="278" 
d="M79 55v393l-60 20v24l176 20v-457s63 -29 63 -30v-25h-242v25c0 1 63 30 63 30zM28 682c35 0 61 -23 61 -59c0 -34 -25 -57 -61 -57c-32 0 -58 21 -58 57c0 35 21 59 58 59zM239 682c33 0 59 -23 59 -59c0 -34 -25 -57 -59 -57s-60 21 -60 57c0 35 21 59 60 59z" />
    <glyph glyph-name="ntilde" unicode="&#xf1;" horiz-adv-x="640" 
d="M110 55v393l-60 20v24l144 20l23 -56c56 32 116 56 180 56c93 0 143 -53 143 -141v-316s63 -29 63 -30v-25h-231v25c0 1 52 30 52 30v272c0 61 -16 108 -92 108c-26 0 -69 -6 -106 -15v-365s52 -29 52 -30v-25h-231v25c0 1 63 30 63 30zM426 550c-65 0 -144 65 -187 65
c-28 0 -49 -5 -89 -45l-20 12l77 114c20 3 28 4 39 4c54 0 143 -65 187 -65c28 0 49 5 88 45l21 -12l-77 -114c-21 -3 -28 -4 -39 -4z" />
    <glyph glyph-name="ograve" unicode="&#xf2;" horiz-adv-x="629" 
d="M193 750l146 -163l-27 -25l-160 97l-26 27zM314 513c148 0 263 -87 263 -262c0 -165 -102 -262 -263 -262c-159 0 -262 84 -262 262c0 168 95 262 262 262zM186 248c0 -100 21 -206 129 -206c113 0 128 94 128 206c0 98 -15 208 -128 208s-129 -94 -129 -208z" />
    <glyph glyph-name="oacute" unicode="&#xf3;" horiz-adv-x="629" 
d="M273 587l146 163l67 -64l-26 -27l-160 -97zM314 513c148 0 263 -87 263 -262c0 -165 -102 -262 -263 -262c-159 0 -262 84 -262 262c0 168 95 262 262 262zM186 248c0 -100 21 -206 129 -206c113 0 128 94 128 206c0 98 -15 208 -128 208s-129 -94 -129 -208z" />
    <glyph glyph-name="ocircumflex" unicode="&#xf4;" horiz-adv-x="629" 
d="M314 513c148 0 263 -87 263 -262c0 -165 -102 -262 -263 -262c-159 0 -262 84 -262 262c0 168 95 262 262 262zM186 248c0 -100 21 -206 129 -206c113 0 128 94 128 206c0 98 -15 208 -128 208s-129 -94 -129 -208zM140 602l178 148l163 -148l-17 -33l-153 84l-159 -84z
" />
    <glyph glyph-name="otilde" unicode="&#xf5;" horiz-adv-x="629" 
d="M314 513c148 0 263 -87 263 -262c0 -165 -102 -262 -263 -262c-159 0 -262 84 -262 262c0 168 95 262 262 262zM186 248c0 -100 21 -206 129 -206c113 0 128 94 128 206c0 98 -15 208 -128 208s-129 -94 -129 -208zM413 556c-65 0 -144 65 -187 65c-28 0 -49 -5 -89 -45
l-20 12l77 114c20 3 28 4 39 4c54 0 143 -65 187 -65c28 0 49 5 88 45l21 -12l-77 -114c-21 -3 -28 -4 -39 -4z" />
    <glyph glyph-name="odieresis" unicode="&#xf6;" horiz-adv-x="583" 
d="M291 513c148 0 263 -87 263 -262c0 -165 -102 -262 -263 -262c-159 0 -262 84 -262 262c0 168 95 262 262 262zM163 248c0 -100 21 -206 129 -206c113 0 128 94 128 206c0 98 -15 208 -128 208s-129 -94 -129 -208zM181 691c35 0 61 -23 61 -59c0 -34 -25 -57 -61 -57
c-32 0 -58 21 -58 57c0 35 21 59 58 59zM392 691c33 0 59 -23 59 -59c0 -34 -25 -57 -59 -57s-60 21 -60 57c0 35 21 59 60 59z" />
    <glyph glyph-name="divide" unicode="&#xf7;" horiz-adv-x="167" 
d="M-161 195l-3 59s444 3 475 3c0 0 -2 -48 -2 -59c-49 -1 -470 -3 -470 -3zM79 106c36 0 62 -23 62 -60c0 -35 -26 -58 -62 -58c-35 0 -61 20 -61 58c0 36 22 60 61 60zM79 465c36 0 62 -23 62 -60c0 -35 -26 -58 -62 -58c-35 0 -61 20 -61 58c0 36 22 60 61 60z" />
    <glyph glyph-name="ugrave" unicode="&#xf9;" horiz-adv-x="626" 
d="M176 750l146 -163l-27 -25l-160 97l-26 27zM214 174c0 -61 16 -108 92 -108c25 0 68 5 106 14v368l-60 20v24l176 20v-460l60 -20v-24l-138 -19l-29 56c-56 -32 -116 -56 -180 -56c-93 0 -143 53 -143 141v318l-60 20v24l176 20v-338z" />
    <glyph glyph-name="uacute" unicode="&#xfa;" horiz-adv-x="626" 
d="M241 587l146 163l67 -64l-26 -27l-160 -97zM214 174c0 -61 16 -108 92 -108c25 0 68 5 106 14v368l-60 20v24l176 20v-460l60 -20v-24l-138 -19l-29 56c-56 -32 -116 -56 -180 -56c-93 0 -143 53 -143 141v318l-60 20v24l176 20v-338z" />
    <glyph glyph-name="ucircumflex" unicode="&#xfb;" horiz-adv-x="626" 
d="M214 174c0 -61 16 -108 92 -108c25 0 68 5 106 14v368l-60 20v24l176 20v-460l60 -20v-24l-138 -19l-29 56c-56 -32 -116 -56 -180 -56c-93 0 -143 53 -143 141v318l-60 20v24l176 20v-338zM130 602l178 148l163 -148l-17 -33l-153 84l-159 -84z" />
    <glyph glyph-name="udieresis" unicode="&#xfc;" horiz-adv-x="570" 
d="M186 174c0 -61 16 -108 92 -108c25 0 68 5 106 14v368l-60 20v24l176 20v-460l60 -20v-24l-138 -19l-29 56c-56 -32 -116 -56 -180 -56c-93 0 -143 53 -143 141v318l-60 20v24l176 20v-338zM179 690c35 0 61 -23 61 -59c0 -34 -25 -57 -61 -57c-32 0 -58 21 -58 57
c0 35 21 59 58 59zM390 690c33 0 59 -23 59 -59c0 -34 -25 -57 -59 -57s-60 21 -60 57c0 35 21 59 60 59z" />
    <glyph glyph-name="yacute" unicode="&#xfd;" horiz-adv-x="457" 
d="M222 587l146 163l67 -64l-26 -27l-160 -97zM-45 500v-25c0 -1 64 -29 72 -32l186 -443l-50 -119c-22 -51 -44 -73 -78 -73c-42 0 -59 28 -84 82h-29l-14 -98c49 -40 94 -42 128 -42c73 0 113 61 142 129l71 168l169 398l59 30v25h-162v-25l40 -23l-132 -311l-128 309
c21 10 50 24 50 25v25h-240z" />
    <glyph glyph-name="ydieresis" unicode="&#xff;" horiz-adv-x="457" 
d="M-45 500v-25c0 -1 64 -29 72 -32l186 -443l-50 -119c-22 -51 -44 -73 -78 -73c-42 0 -59 28 -84 82h-29l-14 -98c49 -40 94 -42 128 -42c73 0 113 61 142 129l71 168l169 398l59 30v25h-162v-25l40 -23l-132 -311l-128 309c21 10 50 24 50 25v25h-240zM162 688
c35 0 61 -23 61 -59c0 -34 -25 -57 -61 -57c-32 0 -58 21 -58 57c0 35 21 59 58 59zM373 688c33 0 59 -23 59 -59c0 -34 -25 -57 -59 -57s-60 21 -60 57c0 35 21 59 60 59z" />
    <glyph glyph-name="scaron" unicode="&#x161;" horiz-adv-x="405" 
d="M359 725l-160 -173l-161 173l27 25l134 -85l133 85zM108 391c0 -103 274 -70 274 -244c0 -141 -136 -158 -215 -158c-40 0 -102 4 -167 43l15 97l29 1c23 -71 87 -88 121 -88c64 0 106 24 106 81c0 93 -265 61 -265 228c0 109 109 161 186 161c80 0 119 -19 162 -45
l-14 -97h-30c-20 71 -61 88 -118 88c-54 0 -84 -27 -84 -67z" />
    <glyph glyph-name="Ydieresis" unicode="&#x178;" horiz-adv-x="724" 
d="M297 270v-215s-63 -29 -63 -30v-25h256v25c0 1 -63 30 -63 30v215l204 375s78 29 78 30v25h-212v-25c0 -1 54 -26 63 -30l-162 -300l-164 301c10 4 63 28 63 29v25h-282v-25c0 -1 68 -26 77 -30zM276 873c35 0 61 -23 61 -59c0 -34 -25 -57 -61 -57c-32 0 -58 21 -58 57
c0 35 21 59 58 59zM487 873c33 0 59 -23 59 -59c0 -34 -25 -57 -59 -57s-60 21 -60 57c0 35 21 59 60 59z" />
    <glyph glyph-name="circumflex" unicode="&#x2c6;" horiz-adv-x="600" 
d="M125 602l178 148l163 -148l-17 -33l-153 84l-159 -84z" />
    <glyph glyph-name="tilde" unicode="&#x2dc;" horiz-adv-x="600" 
d="M388 556c-65 0 -144 65 -187 65c-28 0 -49 -5 -89 -45l-20 12l77 114c20 3 28 4 39 4c54 0 143 -65 187 -65c28 0 49 5 88 45l21 -12l-77 -114c-21 -3 -28 -4 -39 -4z" />
    <glyph glyph-name="quoteleft" unicode="&#x2018;" 
d="M284 417v107c0 61 20 108 102 112v-30c-48 0 -55 -28 -55 -72h54v-117h-101z" />
    <glyph glyph-name="quoteright" unicode="&#x2019;" 
d="M384 626v-107c0 -61 -20 -108 -102 -112v30c48 0 55 28 55 72h-54v117h101z" />
    <glyph glyph-name="quotesinglbase" unicode="&#x201a;" horiz-adv-x="201" 
d="M153 126v-107c0 -61 -20 -108 -102 -112v30c48 0 55 28 55 72h-54v117h101z" />
    <glyph glyph-name="quotedblleft" unicode="&#x201c;" 
d="M199 415v107c0 61 20 108 102 112v-30c-48 0 -55 -28 -55 -72h54v-117h-101zM337 415v107c0 61 20 108 102 112v-30c-48 0 -55 -28 -55 -72h54v-117h-101z" />
    <glyph glyph-name="quotedblright" unicode="&#x201d;" horiz-adv-x="373" 
d="M309 634v-107c0 -61 -20 -108 -102 -112v30c48 0 55 28 55 72h-54v117h101zM171 634v-107c0 -61 -20 -108 -102 -112v30c48 0 55 28 55 72h-54v117h101z" />
    <glyph glyph-name="quotedblbase" unicode="&#x201e;" horiz-adv-x="381" 
d="M303 118v-107c0 -61 -20 -108 -102 -112v30c48 0 55 28 55 72h-54v117h101zM165 118v-107c0 -61 -20 -108 -102 -112v30c48 0 55 28 55 72h-54v117h101z" />
    <glyph glyph-name="bullet" unicode="&#x2022;" horiz-adv-x="369" 
d="M185 511c95 0 167 -61 167 -162c0 -95 -69 -156 -167 -156c-93 0 -165 54 -165 156c0 96 60 162 165 162z" />
    <glyph glyph-name="ellipsis" unicode="&#x2026;" horiz-adv-x="492" 
d="M79 113c37 0 65 -24 65 -63c0 -37 -27 -61 -65 -61c-36 0 -64 21 -64 61c0 37 23 63 64 63zM243 113c37 0 65 -24 65 -63c0 -37 -27 -61 -65 -61c-36 0 -64 21 -64 61c0 37 23 63 64 63zM407 113c37 0 65 -24 65 -63c0 -37 -27 -61 -65 -61c-36 0 -64 21 -64 61
c0 37 23 63 64 63z" />
    <glyph glyph-name="fraction" unicode="&#x2044;" horiz-adv-x="354" 
d="M130 0l298 655h58l-298 -655h-58z" />
    <glyph glyph-name="trademark" unicode="&#x2122;" horiz-adv-x="1611" 
d="M409 526v-183l25 -12v-12h-81v12l31 12v229l-31 12v10h80l89 -208l84 208h81v-10l-30 -12v-229l30 -12v-12h-107v12l26 12v189l-87 -213h-24zM232 343l30 -12v-12h-113v12l31 12v225h-63c-5 -19 -12 -41 -12 -41h-14l-5 67h243l-5 -67h-13c-1 0 -8 22 -13 41h-66v-225z
" />
    <glyph glyph-name="minus" unicode="&#x2212;" 
d="M101 221v84h378v-84h-378z" />
    </font>
</defs>
</svg>
